<mxfile host="app.diagrams.net" modified="2021-03-29T01:54:46.700Z" agent="5.0 (Macintosh; Intel Mac OS X 10_14_3) AppleWebKit/537.36 (KHTML, like Gecko) Chrome/89.0.4389.90 Safari/537.36" etag="ktSfnLeJraY6TRCsaQaM" version="14.5.1" type="github">
  <diagram id="3228e29e-7158-1315-38df-8450db1d8a1d" name="Page-1">
    <mxGraphModel dx="1498" dy="590" grid="1" gridSize="10" guides="1" tooltips="1" connect="1" arrows="1" fold="1" page="1" pageScale="1" pageWidth="800" pageHeight="200" background="#ffffff" math="0" shadow="1">
      <root>
        <mxCell id="0" />
        <mxCell id="1" parent="0" />
        <mxCell id="M9zflv45pWriz8vddk0P-69" value="" style="rounded=1;whiteSpace=wrap;html=1;shadow=0;dashed=1;strokeColor=#5A6EAB;fillColor=#CCCCCC;" parent="1" vertex="1">
          <mxGeometry x="350" y="610" width="280" height="220" as="geometry" />
        </mxCell>
        <mxCell id="M9zflv45pWriz8vddk0P-8" value="" style="endArrow=none;html=1;fillColor=#00FF80;strokeWidth=15;strokeColor=#FDD276;" parent="1" edge="1">
          <mxGeometry width="50" height="50" relative="1" as="geometry">
            <mxPoint x="380" y="730" as="sourcePoint" />
            <mxPoint x="380" y="690" as="targetPoint" />
          </mxGeometry>
        </mxCell>
        <mxCell id="M9zflv45pWriz8vddk0P-9" value="" style="endArrow=none;html=1;fillColor=#00FF80;strokeWidth=15;dashed=1;strokeColor=#00B500;" parent="1" edge="1">
          <mxGeometry width="50" height="50" relative="1" as="geometry">
            <mxPoint x="380" y="750" as="sourcePoint" />
            <mxPoint x="380" y="730" as="targetPoint" />
          </mxGeometry>
        </mxCell>
        <mxCell id="M9zflv45pWriz8vddk0P-10" value="" style="endArrow=none;html=1;fillColor=#00FF80;strokeWidth=15;strokeColor=#FDD276;" parent="1" edge="1">
          <mxGeometry width="50" height="50" relative="1" as="geometry">
            <mxPoint x="410" y="730" as="sourcePoint" />
            <mxPoint x="410" y="690" as="targetPoint" />
          </mxGeometry>
        </mxCell>
        <mxCell id="M9zflv45pWriz8vddk0P-11" value="" style="endArrow=none;html=1;fillColor=#00FF80;strokeWidth=15;strokeColor=#00B500;" parent="1" edge="1">
          <mxGeometry width="50" height="50" relative="1" as="geometry">
            <mxPoint x="410" y="830" as="sourcePoint" />
            <mxPoint x="410" y="730" as="targetPoint" />
          </mxGeometry>
        </mxCell>
        <mxCell id="M9zflv45pWriz8vddk0P-12" value="" style="endArrow=none;html=1;fillColor=#00FF80;strokeWidth=15;dashed=1;strokeColor=#FFFFFF;" parent="1" edge="1">
          <mxGeometry width="50" height="50" relative="1" as="geometry">
            <mxPoint x="380" y="770" as="sourcePoint" />
            <mxPoint x="380" y="750" as="targetPoint" />
          </mxGeometry>
        </mxCell>
        <mxCell id="M9zflv45pWriz8vddk0P-13" value="" style="endArrow=none;html=1;fillColor=#00FF80;strokeWidth=15;dashed=1;strokeColor=#00B500;" parent="1" edge="1">
          <mxGeometry width="50" height="50" relative="1" as="geometry">
            <mxPoint x="380" y="790" as="sourcePoint" />
            <mxPoint x="380" y="770" as="targetPoint" />
          </mxGeometry>
        </mxCell>
        <mxCell id="M9zflv45pWriz8vddk0P-20" value="" style="endArrow=none;html=1;fillColor=#00FF80;strokeWidth=15;dashed=1;strokeColor=#FFFFFF;" parent="1" edge="1">
          <mxGeometry width="50" height="50" relative="1" as="geometry">
            <mxPoint x="380" y="810" as="sourcePoint" />
            <mxPoint x="380" y="790" as="targetPoint" />
          </mxGeometry>
        </mxCell>
        <mxCell id="M9zflv45pWriz8vddk0P-21" value="" style="endArrow=none;html=1;fillColor=#00FF80;strokeWidth=15;dashed=1;strokeColor=#00B500;" parent="1" edge="1">
          <mxGeometry width="50" height="50" relative="1" as="geometry">
            <mxPoint x="380" y="830" as="sourcePoint" />
            <mxPoint x="380" y="810" as="targetPoint" />
          </mxGeometry>
        </mxCell>
        <mxCell id="M9zflv45pWriz8vddk0P-22" value="" style="endArrow=none;html=1;fillColor=#00FF80;strokeWidth=15;strokeColor=#FDD276;" parent="1" edge="1">
          <mxGeometry width="50" height="50" relative="1" as="geometry">
            <mxPoint x="444.5" y="730" as="sourcePoint" />
            <mxPoint x="444.5" y="690" as="targetPoint" />
          </mxGeometry>
        </mxCell>
        <mxCell id="M9zflv45pWriz8vddk0P-23" value="" style="endArrow=none;html=1;fillColor=#00FF80;strokeWidth=15;dashed=1;strokeColor=#FF8000;" parent="1" edge="1">
          <mxGeometry width="50" height="50" relative="1" as="geometry">
            <mxPoint x="444.5" y="750" as="sourcePoint" />
            <mxPoint x="444.5" y="730" as="targetPoint" />
          </mxGeometry>
        </mxCell>
        <mxCell id="M9zflv45pWriz8vddk0P-24" value="" style="endArrow=none;html=1;fillColor=#00FF80;strokeWidth=15;strokeColor=#FDD276;" parent="1" edge="1">
          <mxGeometry width="50" height="50" relative="1" as="geometry">
            <mxPoint x="474.5" y="730" as="sourcePoint" />
            <mxPoint x="474.5" y="690" as="targetPoint" />
          </mxGeometry>
        </mxCell>
        <mxCell id="M9zflv45pWriz8vddk0P-25" value="" style="endArrow=none;html=1;fillColor=#00FF80;strokeWidth=15;strokeColor=#478BFF;" parent="1" edge="1">
          <mxGeometry width="50" height="50" relative="1" as="geometry">
            <mxPoint x="474.5" y="830" as="sourcePoint" />
            <mxPoint x="474.5" y="730" as="targetPoint" />
          </mxGeometry>
        </mxCell>
        <mxCell id="M9zflv45pWriz8vddk0P-26" value="" style="endArrow=none;html=1;fillColor=#00FF80;strokeWidth=15;dashed=1;strokeColor=#FFFFFF;" parent="1" edge="1">
          <mxGeometry width="50" height="50" relative="1" as="geometry">
            <mxPoint x="444.5" y="770" as="sourcePoint" />
            <mxPoint x="444.5" y="750" as="targetPoint" />
          </mxGeometry>
        </mxCell>
        <mxCell id="M9zflv45pWriz8vddk0P-27" value="" style="endArrow=none;html=1;fillColor=#00FF80;strokeWidth=15;dashed=1;strokeColor=#FF8000;" parent="1" edge="1">
          <mxGeometry width="50" height="50" relative="1" as="geometry">
            <mxPoint x="444.5" y="790" as="sourcePoint" />
            <mxPoint x="444.5" y="770" as="targetPoint" />
          </mxGeometry>
        </mxCell>
        <mxCell id="M9zflv45pWriz8vddk0P-28" value="" style="endArrow=none;html=1;fillColor=#00FF80;strokeWidth=15;dashed=1;strokeColor=#FFFFFF;" parent="1" edge="1">
          <mxGeometry width="50" height="50" relative="1" as="geometry">
            <mxPoint x="444.5" y="810" as="sourcePoint" />
            <mxPoint x="444.5" y="790" as="targetPoint" />
          </mxGeometry>
        </mxCell>
        <mxCell id="M9zflv45pWriz8vddk0P-29" value="" style="endArrow=none;html=1;fillColor=#00FF80;strokeWidth=15;dashed=1;strokeColor=#FF8000;" parent="1" edge="1">
          <mxGeometry width="50" height="50" relative="1" as="geometry">
            <mxPoint x="444.5" y="830" as="sourcePoint" />
            <mxPoint x="444.5" y="810" as="targetPoint" />
          </mxGeometry>
        </mxCell>
        <mxCell id="M9zflv45pWriz8vddk0P-30" value="" style="endArrow=none;html=1;fillColor=#00FF80;strokeWidth=15;strokeColor=#FDD276;" parent="1" edge="1">
          <mxGeometry width="50" height="50" relative="1" as="geometry">
            <mxPoint x="505" y="730" as="sourcePoint" />
            <mxPoint x="505" y="690" as="targetPoint" />
          </mxGeometry>
        </mxCell>
        <mxCell id="M9zflv45pWriz8vddk0P-31" value="" style="endArrow=none;html=1;fillColor=#00FF80;strokeWidth=15;dashed=1;strokeColor=#478BFF;" parent="1" edge="1">
          <mxGeometry width="50" height="50" relative="1" as="geometry">
            <mxPoint x="505" y="750" as="sourcePoint" />
            <mxPoint x="505" y="730" as="targetPoint" />
          </mxGeometry>
        </mxCell>
        <mxCell id="M9zflv45pWriz8vddk0P-32" value="" style="endArrow=none;html=1;fillColor=#00FF80;strokeWidth=15;dashed=1;strokeColor=#FFFFFF;" parent="1" edge="1">
          <mxGeometry width="50" height="50" relative="1" as="geometry">
            <mxPoint x="505" y="770" as="sourcePoint" />
            <mxPoint x="505" y="750" as="targetPoint" />
          </mxGeometry>
        </mxCell>
        <mxCell id="M9zflv45pWriz8vddk0P-33" value="" style="endArrow=none;html=1;fillColor=#00FF80;strokeWidth=15;dashed=1;strokeColor=#478BFF;" parent="1" edge="1">
          <mxGeometry width="50" height="50" relative="1" as="geometry">
            <mxPoint x="505" y="790" as="sourcePoint" />
            <mxPoint x="505" y="770" as="targetPoint" />
          </mxGeometry>
        </mxCell>
        <mxCell id="M9zflv45pWriz8vddk0P-34" value="" style="endArrow=none;html=1;fillColor=#00FF80;strokeWidth=15;dashed=1;strokeColor=#FFFFFF;" parent="1" edge="1">
          <mxGeometry width="50" height="50" relative="1" as="geometry">
            <mxPoint x="505" y="810" as="sourcePoint" />
            <mxPoint x="505" y="790" as="targetPoint" />
          </mxGeometry>
        </mxCell>
        <mxCell id="M9zflv45pWriz8vddk0P-35" value="" style="endArrow=none;html=1;fillColor=#00FF80;strokeWidth=15;dashed=1;strokeColor=#478BFF;" parent="1" edge="1">
          <mxGeometry width="50" height="50" relative="1" as="geometry">
            <mxPoint x="505" y="830" as="sourcePoint" />
            <mxPoint x="505" y="810" as="targetPoint" />
          </mxGeometry>
        </mxCell>
        <mxCell id="M9zflv45pWriz8vddk0P-44" value="" style="endArrow=none;html=1;fillColor=#00FF80;strokeWidth=15;strokeColor=#FDD276;" parent="1" edge="1">
          <mxGeometry width="50" height="50" relative="1" as="geometry">
            <mxPoint x="540" y="730" as="sourcePoint" />
            <mxPoint x="540" y="690" as="targetPoint" />
          </mxGeometry>
        </mxCell>
        <mxCell id="M9zflv45pWriz8vddk0P-45" value="" style="endArrow=none;html=1;fillColor=#00FF80;strokeWidth=15;strokeColor=#FF8000;" parent="1" edge="1">
          <mxGeometry width="50" height="50" relative="1" as="geometry">
            <mxPoint x="540" y="830" as="sourcePoint" />
            <mxPoint x="540" y="730" as="targetPoint" />
          </mxGeometry>
        </mxCell>
        <mxCell id="M9zflv45pWriz8vddk0P-46" value="" style="endArrow=none;html=1;fillColor=#00FF80;strokeWidth=15;strokeColor=#FDD276;" parent="1" edge="1">
          <mxGeometry width="50" height="50" relative="1" as="geometry">
            <mxPoint x="570.5" y="730" as="sourcePoint" />
            <mxPoint x="570.5" y="690" as="targetPoint" />
          </mxGeometry>
        </mxCell>
        <mxCell id="M9zflv45pWriz8vddk0P-47" value="" style="endArrow=none;html=1;fillColor=#00FF80;strokeWidth=15;dashed=1;strokeColor=#7D5C00;" parent="1" edge="1">
          <mxGeometry width="50" height="50" relative="1" as="geometry">
            <mxPoint x="570.5" y="750" as="sourcePoint" />
            <mxPoint x="570.5" y="730" as="targetPoint" />
          </mxGeometry>
        </mxCell>
        <mxCell id="M9zflv45pWriz8vddk0P-48" value="" style="endArrow=none;html=1;fillColor=#00FF80;strokeWidth=15;dashed=1;strokeColor=#FFFFFF;" parent="1" edge="1">
          <mxGeometry width="50" height="50" relative="1" as="geometry">
            <mxPoint x="570.5" y="770" as="sourcePoint" />
            <mxPoint x="570.5" y="750" as="targetPoint" />
          </mxGeometry>
        </mxCell>
        <mxCell id="M9zflv45pWriz8vddk0P-49" value="" style="endArrow=none;html=1;fillColor=#00FF80;strokeWidth=15;dashed=1;strokeColor=#7D5C00;" parent="1" edge="1">
          <mxGeometry width="50" height="50" relative="1" as="geometry">
            <mxPoint x="570.5" y="790" as="sourcePoint" />
            <mxPoint x="570.5" y="770" as="targetPoint" />
          </mxGeometry>
        </mxCell>
        <mxCell id="M9zflv45pWriz8vddk0P-50" value="" style="endArrow=none;html=1;fillColor=#00FF80;strokeWidth=15;dashed=1;strokeColor=#FFFFFF;" parent="1" edge="1">
          <mxGeometry width="50" height="50" relative="1" as="geometry">
            <mxPoint x="570.5" y="810" as="sourcePoint" />
            <mxPoint x="570.5" y="790" as="targetPoint" />
          </mxGeometry>
        </mxCell>
        <mxCell id="M9zflv45pWriz8vddk0P-51" value="" style="endArrow=none;html=1;fillColor=#00FF80;strokeWidth=15;dashed=1;strokeColor=#7D5C00;" parent="1" edge="1">
          <mxGeometry width="50" height="50" relative="1" as="geometry">
            <mxPoint x="570.5" y="830" as="sourcePoint" />
            <mxPoint x="570.5" y="810" as="targetPoint" />
          </mxGeometry>
        </mxCell>
        <mxCell id="M9zflv45pWriz8vddk0P-52" value="" style="endArrow=none;html=1;fillColor=#00FF80;strokeWidth=15;strokeColor=#FDD276;" parent="1" edge="1">
          <mxGeometry width="50" height="50" relative="1" as="geometry">
            <mxPoint x="600" y="730" as="sourcePoint" />
            <mxPoint x="600" y="690" as="targetPoint" />
          </mxGeometry>
        </mxCell>
        <mxCell id="M9zflv45pWriz8vddk0P-53" value="" style="endArrow=none;html=1;fillColor=#00FF80;strokeWidth=15;strokeColor=#7D5C00;" parent="1" edge="1">
          <mxGeometry width="50" height="50" relative="1" as="geometry">
            <mxPoint x="600" y="830" as="sourcePoint" />
            <mxPoint x="600" y="730" as="targetPoint" />
          </mxGeometry>
        </mxCell>
        <mxCell id="M9zflv45pWriz8vddk0P-54" value="&lt;font style=&quot;font-size: 30px&quot;&gt;1&lt;/font&gt;" style="text;html=1;strokeColor=none;fillColor=none;align=center;verticalAlign=middle;whiteSpace=wrap;rounded=0;shadow=0;" parent="1" vertex="1">
          <mxGeometry x="370" y="660" width="20" height="20" as="geometry" />
        </mxCell>
        <mxCell id="M9zflv45pWriz8vddk0P-56" value="&lt;font style=&quot;font-size: 30px&quot;&gt;2&lt;/font&gt;" style="text;html=1;strokeColor=none;fillColor=none;align=center;verticalAlign=middle;whiteSpace=wrap;rounded=0;shadow=0;" parent="1" vertex="1">
          <mxGeometry x="400" y="660" width="20" height="20" as="geometry" />
        </mxCell>
        <mxCell id="M9zflv45pWriz8vddk0P-57" value="&lt;font style=&quot;font-size: 30px&quot;&gt;3&lt;/font&gt;" style="text;html=1;strokeColor=none;fillColor=none;align=center;verticalAlign=middle;whiteSpace=wrap;rounded=0;shadow=0;" parent="1" vertex="1">
          <mxGeometry x="434" y="660" width="20" height="20" as="geometry" />
        </mxCell>
        <mxCell id="M9zflv45pWriz8vddk0P-58" value="&lt;font style=&quot;font-size: 30px&quot;&gt;4&lt;/font&gt;" style="text;html=1;strokeColor=none;fillColor=none;align=center;verticalAlign=middle;whiteSpace=wrap;rounded=0;shadow=0;" parent="1" vertex="1">
          <mxGeometry x="464" y="660" width="20" height="20" as="geometry" />
        </mxCell>
        <mxCell id="M9zflv45pWriz8vddk0P-59" value="&lt;font style=&quot;font-size: 30px&quot;&gt;5&lt;/font&gt;" style="text;html=1;strokeColor=none;fillColor=none;align=center;verticalAlign=middle;whiteSpace=wrap;rounded=0;shadow=0;" parent="1" vertex="1">
          <mxGeometry x="494" y="660" width="20" height="20" as="geometry" />
        </mxCell>
        <mxCell id="M9zflv45pWriz8vddk0P-60" value="&lt;font style=&quot;font-size: 30px&quot;&gt;6&lt;/font&gt;" style="text;html=1;strokeColor=none;fillColor=none;align=center;verticalAlign=middle;whiteSpace=wrap;rounded=0;shadow=0;" parent="1" vertex="1">
          <mxGeometry x="530" y="660" width="20" height="20" as="geometry" />
        </mxCell>
        <mxCell id="M9zflv45pWriz8vddk0P-61" value="&lt;font style=&quot;font-size: 30px&quot;&gt;7&lt;/font&gt;" style="text;html=1;strokeColor=none;fillColor=none;align=center;verticalAlign=middle;whiteSpace=wrap;rounded=0;shadow=0;" parent="1" vertex="1">
          <mxGeometry x="560" y="660" width="20" height="20" as="geometry" />
        </mxCell>
        <mxCell id="M9zflv45pWriz8vddk0P-62" value="&lt;font style=&quot;font-size: 30px&quot;&gt;8&lt;/font&gt;" style="text;html=1;strokeColor=none;fillColor=none;align=center;verticalAlign=middle;whiteSpace=wrap;rounded=0;shadow=0;" parent="1" vertex="1">
          <mxGeometry x="590" y="660" width="20" height="20" as="geometry" />
        </mxCell>
        <mxCell id="M9zflv45pWriz8vddk0P-63" value="" style="rounded=0;whiteSpace=wrap;html=1;shadow=0;fillColor=none;dashed=1;strokeColor=#67AB9F;" parent="1" vertex="1">
          <mxGeometry x="365" y="650" width="60" height="80" as="geometry" />
        </mxCell>
        <mxCell id="M9zflv45pWriz8vddk0P-64" value="&lt;font style=&quot;font-size: 30px&quot;&gt;1,2收数据&lt;br&gt;3,6发数据&lt;br&gt;&lt;/font&gt;" style="text;html=1;strokeColor=none;fillColor=none;align=center;verticalAlign=middle;whiteSpace=wrap;rounded=0;shadow=0;dashed=1;" parent="1" vertex="1">
          <mxGeometry x="90" y="640" width="171" height="40" as="geometry" />
        </mxCell>
        <mxCell id="M9zflv45pWriz8vddk0P-65" value="" style="rounded=0;whiteSpace=wrap;html=1;shadow=0;fillColor=none;dashed=1;strokeColor=#5A6EAB;" parent="1" vertex="1">
          <mxGeometry x="430" y="650" width="30" height="80" as="geometry" />
        </mxCell>
        <mxCell id="M9zflv45pWriz8vddk0P-66" value="" style="rounded=0;whiteSpace=wrap;html=1;shadow=0;fillColor=none;dashed=1;strokeColor=#5A6EAB;" parent="1" vertex="1">
          <mxGeometry x="525" y="650" width="30" height="80" as="geometry" />
        </mxCell>
        <mxCell id="M9zflv45pWriz8vddk0P-68" value="" style="shape=flexArrow;endArrow=classic;html=1;dashed=1;strokeWidth=15;strokeColor=none;fillColor=#5A6EAB;" parent="1" edge="1">
          <mxGeometry width="50" height="50" relative="1" as="geometry">
            <mxPoint x="351" y="669.76" as="sourcePoint" />
            <mxPoint x="261" y="669.76" as="targetPoint" />
          </mxGeometry>
        </mxCell>
        <mxCell id="M9zflv45pWriz8vddk0P-71" value="" style="rounded=0;whiteSpace=wrap;html=1;shadow=0;dashed=1;strokeColor=#5A6EAB;fillColor=#CCCCCC;" parent="1" vertex="1">
          <mxGeometry x="372" y="830" width="238" height="50" as="geometry" />
        </mxCell>
        <mxCell id="M9zflv45pWriz8vddk0P-72" value="&lt;font style=&quot;font-size: 50px&quot;&gt;T568A&lt;/font&gt;" style="rounded=0;whiteSpace=wrap;html=1;shadow=0;dashed=1;strokeColor=#5A6EAB;fillColor=#CCCCCC;" parent="1" vertex="1">
          <mxGeometry x="352" y="880" width="278" height="140" as="geometry" />
        </mxCell>
        <mxCell id="M9zflv45pWriz8vddk0P-73" value="" style="rounded=1;whiteSpace=wrap;html=1;shadow=0;dashed=1;strokeColor=#5A6EAB;fillColor=#CCCCCC;" parent="1" vertex="1">
          <mxGeometry x="950" y="610" width="280" height="220" as="geometry" />
        </mxCell>
        <mxCell id="M9zflv45pWriz8vddk0P-74" value="" style="endArrow=none;html=1;fillColor=#00FF80;strokeWidth=15;strokeColor=#FDD276;" parent="1" edge="1">
          <mxGeometry width="50" height="50" relative="1" as="geometry">
            <mxPoint x="980" y="730" as="sourcePoint" />
            <mxPoint x="980" y="690" as="targetPoint" />
          </mxGeometry>
        </mxCell>
        <mxCell id="M9zflv45pWriz8vddk0P-75" value="" style="endArrow=none;html=1;fillColor=#00FF80;strokeWidth=15;dashed=1;strokeColor=#FF8000;" parent="1" edge="1">
          <mxGeometry width="50" height="50" relative="1" as="geometry">
            <mxPoint x="980" y="750" as="sourcePoint" />
            <mxPoint x="980" y="730" as="targetPoint" />
          </mxGeometry>
        </mxCell>
        <mxCell id="M9zflv45pWriz8vddk0P-76" value="" style="endArrow=none;html=1;fillColor=#00FF80;strokeWidth=15;strokeColor=#FDD276;" parent="1" edge="1">
          <mxGeometry width="50" height="50" relative="1" as="geometry">
            <mxPoint x="1010" y="730" as="sourcePoint" />
            <mxPoint x="1010" y="690" as="targetPoint" />
          </mxGeometry>
        </mxCell>
        <mxCell id="M9zflv45pWriz8vddk0P-77" value="" style="endArrow=none;html=1;fillColor=#00FF80;strokeWidth=15;strokeColor=#FF8000;" parent="1" edge="1">
          <mxGeometry width="50" height="50" relative="1" as="geometry">
            <mxPoint x="1010" y="830" as="sourcePoint" />
            <mxPoint x="1010" y="730" as="targetPoint" />
          </mxGeometry>
        </mxCell>
        <mxCell id="M9zflv45pWriz8vddk0P-78" value="" style="endArrow=none;html=1;fillColor=#00FF80;strokeWidth=15;dashed=1;strokeColor=#FFFFFF;" parent="1" edge="1">
          <mxGeometry width="50" height="50" relative="1" as="geometry">
            <mxPoint x="980" y="770" as="sourcePoint" />
            <mxPoint x="980" y="750" as="targetPoint" />
          </mxGeometry>
        </mxCell>
        <mxCell id="M9zflv45pWriz8vddk0P-79" value="" style="endArrow=none;html=1;fillColor=#00FF80;strokeWidth=15;dashed=1;strokeColor=#FF8000;" parent="1" edge="1">
          <mxGeometry width="50" height="50" relative="1" as="geometry">
            <mxPoint x="980" y="790" as="sourcePoint" />
            <mxPoint x="980" y="770" as="targetPoint" />
          </mxGeometry>
        </mxCell>
        <mxCell id="M9zflv45pWriz8vddk0P-80" value="" style="endArrow=none;html=1;fillColor=#00FF80;strokeWidth=15;dashed=1;strokeColor=#FFFFFF;" parent="1" edge="1">
          <mxGeometry width="50" height="50" relative="1" as="geometry">
            <mxPoint x="980" y="810" as="sourcePoint" />
            <mxPoint x="980" y="790" as="targetPoint" />
          </mxGeometry>
        </mxCell>
        <mxCell id="M9zflv45pWriz8vddk0P-81" value="" style="endArrow=none;html=1;fillColor=#00FF80;strokeWidth=15;dashed=1;strokeColor=#FF8000;" parent="1" edge="1">
          <mxGeometry width="50" height="50" relative="1" as="geometry">
            <mxPoint x="980" y="830" as="sourcePoint" />
            <mxPoint x="980" y="810" as="targetPoint" />
          </mxGeometry>
        </mxCell>
        <mxCell id="M9zflv45pWriz8vddk0P-82" value="" style="endArrow=none;html=1;fillColor=#00FF80;strokeWidth=15;strokeColor=#FDD276;" parent="1" edge="1">
          <mxGeometry width="50" height="50" relative="1" as="geometry">
            <mxPoint x="1044.5" y="730" as="sourcePoint" />
            <mxPoint x="1044.5" y="690" as="targetPoint" />
          </mxGeometry>
        </mxCell>
        <mxCell id="M9zflv45pWriz8vddk0P-83" value="" style="endArrow=none;html=1;fillColor=#00FF80;strokeWidth=15;dashed=1;strokeColor=#00B500;" parent="1" edge="1">
          <mxGeometry width="50" height="50" relative="1" as="geometry">
            <mxPoint x="1044.5" y="750" as="sourcePoint" />
            <mxPoint x="1044.5" y="730" as="targetPoint" />
          </mxGeometry>
        </mxCell>
        <mxCell id="M9zflv45pWriz8vddk0P-84" value="" style="endArrow=none;html=1;fillColor=#00FF80;strokeWidth=15;strokeColor=#FDD276;" parent="1" edge="1">
          <mxGeometry width="50" height="50" relative="1" as="geometry">
            <mxPoint x="1074.5" y="730" as="sourcePoint" />
            <mxPoint x="1074.5" y="690" as="targetPoint" />
          </mxGeometry>
        </mxCell>
        <mxCell id="M9zflv45pWriz8vddk0P-85" value="" style="endArrow=none;html=1;fillColor=#00FF80;strokeWidth=15;strokeColor=#478BFF;" parent="1" edge="1">
          <mxGeometry width="50" height="50" relative="1" as="geometry">
            <mxPoint x="1074.5" y="830" as="sourcePoint" />
            <mxPoint x="1074.5" y="730" as="targetPoint" />
          </mxGeometry>
        </mxCell>
        <mxCell id="M9zflv45pWriz8vddk0P-86" value="" style="endArrow=none;html=1;fillColor=#00FF80;strokeWidth=15;dashed=1;strokeColor=#FFFFFF;" parent="1" edge="1">
          <mxGeometry width="50" height="50" relative="1" as="geometry">
            <mxPoint x="1044.5" y="770" as="sourcePoint" />
            <mxPoint x="1044.5" y="750" as="targetPoint" />
          </mxGeometry>
        </mxCell>
        <mxCell id="M9zflv45pWriz8vddk0P-87" value="" style="endArrow=none;html=1;fillColor=#00FF80;strokeWidth=15;dashed=1;strokeColor=#00B500;" parent="1" edge="1">
          <mxGeometry width="50" height="50" relative="1" as="geometry">
            <mxPoint x="1044.5" y="790" as="sourcePoint" />
            <mxPoint x="1044.5" y="770" as="targetPoint" />
          </mxGeometry>
        </mxCell>
        <mxCell id="M9zflv45pWriz8vddk0P-88" value="" style="endArrow=none;html=1;fillColor=#00FF80;strokeWidth=15;dashed=1;strokeColor=#FFFFFF;" parent="1" edge="1">
          <mxGeometry width="50" height="50" relative="1" as="geometry">
            <mxPoint x="1044.5" y="810" as="sourcePoint" />
            <mxPoint x="1044.5" y="790" as="targetPoint" />
          </mxGeometry>
        </mxCell>
        <mxCell id="M9zflv45pWriz8vddk0P-89" value="" style="endArrow=none;html=1;fillColor=#00FF80;strokeWidth=15;dashed=1;strokeColor=#00B500;" parent="1" edge="1">
          <mxGeometry width="50" height="50" relative="1" as="geometry">
            <mxPoint x="1044.5" y="830" as="sourcePoint" />
            <mxPoint x="1044.5" y="810" as="targetPoint" />
          </mxGeometry>
        </mxCell>
        <mxCell id="M9zflv45pWriz8vddk0P-90" value="" style="endArrow=none;html=1;fillColor=#00FF80;strokeWidth=15;strokeColor=#FDD276;" parent="1" edge="1">
          <mxGeometry width="50" height="50" relative="1" as="geometry">
            <mxPoint x="1105" y="730" as="sourcePoint" />
            <mxPoint x="1105" y="690" as="targetPoint" />
          </mxGeometry>
        </mxCell>
        <mxCell id="M9zflv45pWriz8vddk0P-91" value="" style="endArrow=none;html=1;fillColor=#00FF80;strokeWidth=15;dashed=1;strokeColor=#478BFF;" parent="1" edge="1">
          <mxGeometry width="50" height="50" relative="1" as="geometry">
            <mxPoint x="1105" y="750" as="sourcePoint" />
            <mxPoint x="1105" y="730" as="targetPoint" />
          </mxGeometry>
        </mxCell>
        <mxCell id="M9zflv45pWriz8vddk0P-92" value="" style="endArrow=none;html=1;fillColor=#00FF80;strokeWidth=15;dashed=1;strokeColor=#FFFFFF;" parent="1" edge="1">
          <mxGeometry width="50" height="50" relative="1" as="geometry">
            <mxPoint x="1105" y="770" as="sourcePoint" />
            <mxPoint x="1105" y="750" as="targetPoint" />
          </mxGeometry>
        </mxCell>
        <mxCell id="M9zflv45pWriz8vddk0P-93" value="" style="endArrow=none;html=1;fillColor=#00FF80;strokeWidth=15;dashed=1;strokeColor=#478BFF;" parent="1" edge="1">
          <mxGeometry width="50" height="50" relative="1" as="geometry">
            <mxPoint x="1105" y="790" as="sourcePoint" />
            <mxPoint x="1105" y="770" as="targetPoint" />
          </mxGeometry>
        </mxCell>
        <mxCell id="M9zflv45pWriz8vddk0P-94" value="" style="endArrow=none;html=1;fillColor=#00FF80;strokeWidth=15;dashed=1;strokeColor=#FFFFFF;" parent="1" edge="1">
          <mxGeometry width="50" height="50" relative="1" as="geometry">
            <mxPoint x="1105" y="810" as="sourcePoint" />
            <mxPoint x="1105" y="790" as="targetPoint" />
          </mxGeometry>
        </mxCell>
        <mxCell id="M9zflv45pWriz8vddk0P-95" value="" style="endArrow=none;html=1;fillColor=#00FF80;strokeWidth=15;dashed=1;strokeColor=#478BFF;" parent="1" edge="1">
          <mxGeometry width="50" height="50" relative="1" as="geometry">
            <mxPoint x="1105" y="830" as="sourcePoint" />
            <mxPoint x="1105" y="810" as="targetPoint" />
          </mxGeometry>
        </mxCell>
        <mxCell id="M9zflv45pWriz8vddk0P-96" value="" style="endArrow=none;html=1;fillColor=#00FF80;strokeWidth=15;strokeColor=#FDD276;" parent="1" edge="1">
          <mxGeometry width="50" height="50" relative="1" as="geometry">
            <mxPoint x="1140" y="730" as="sourcePoint" />
            <mxPoint x="1140" y="690" as="targetPoint" />
          </mxGeometry>
        </mxCell>
        <mxCell id="M9zflv45pWriz8vddk0P-97" value="" style="endArrow=none;html=1;fillColor=#00FF80;strokeWidth=15;strokeColor=#00B500;" parent="1" edge="1">
          <mxGeometry width="50" height="50" relative="1" as="geometry">
            <mxPoint x="1140" y="830" as="sourcePoint" />
            <mxPoint x="1140" y="730" as="targetPoint" />
          </mxGeometry>
        </mxCell>
        <mxCell id="M9zflv45pWriz8vddk0P-98" value="" style="endArrow=none;html=1;fillColor=#00FF80;strokeWidth=15;strokeColor=#FDD276;" parent="1" edge="1">
          <mxGeometry width="50" height="50" relative="1" as="geometry">
            <mxPoint x="1170.5" y="730" as="sourcePoint" />
            <mxPoint x="1170.5" y="690" as="targetPoint" />
          </mxGeometry>
        </mxCell>
        <mxCell id="M9zflv45pWriz8vddk0P-99" value="" style="endArrow=none;html=1;fillColor=#00FF80;strokeWidth=15;dashed=1;strokeColor=#7D5C00;" parent="1" edge="1">
          <mxGeometry width="50" height="50" relative="1" as="geometry">
            <mxPoint x="1170.5" y="750" as="sourcePoint" />
            <mxPoint x="1170.5" y="730" as="targetPoint" />
          </mxGeometry>
        </mxCell>
        <mxCell id="M9zflv45pWriz8vddk0P-100" value="" style="endArrow=none;html=1;fillColor=#00FF80;strokeWidth=15;dashed=1;strokeColor=#FFFFFF;" parent="1" edge="1">
          <mxGeometry width="50" height="50" relative="1" as="geometry">
            <mxPoint x="1170.5" y="770" as="sourcePoint" />
            <mxPoint x="1170.5" y="750" as="targetPoint" />
          </mxGeometry>
        </mxCell>
        <mxCell id="M9zflv45pWriz8vddk0P-101" value="" style="endArrow=none;html=1;fillColor=#00FF80;strokeWidth=15;dashed=1;strokeColor=#7D5C00;" parent="1" edge="1">
          <mxGeometry width="50" height="50" relative="1" as="geometry">
            <mxPoint x="1170.5" y="790" as="sourcePoint" />
            <mxPoint x="1170.5" y="770" as="targetPoint" />
          </mxGeometry>
        </mxCell>
        <mxCell id="M9zflv45pWriz8vddk0P-102" value="" style="endArrow=none;html=1;fillColor=#00FF80;strokeWidth=15;dashed=1;strokeColor=#FFFFFF;" parent="1" edge="1">
          <mxGeometry width="50" height="50" relative="1" as="geometry">
            <mxPoint x="1170.5" y="810" as="sourcePoint" />
            <mxPoint x="1170.5" y="790" as="targetPoint" />
          </mxGeometry>
        </mxCell>
        <mxCell id="M9zflv45pWriz8vddk0P-103" value="" style="endArrow=none;html=1;fillColor=#00FF80;strokeWidth=15;dashed=1;strokeColor=#7D5C00;" parent="1" edge="1">
          <mxGeometry width="50" height="50" relative="1" as="geometry">
            <mxPoint x="1170.5" y="830" as="sourcePoint" />
            <mxPoint x="1170.5" y="810" as="targetPoint" />
          </mxGeometry>
        </mxCell>
        <mxCell id="M9zflv45pWriz8vddk0P-104" value="" style="endArrow=none;html=1;fillColor=#00FF80;strokeWidth=15;strokeColor=#FDD276;" parent="1" edge="1">
          <mxGeometry width="50" height="50" relative="1" as="geometry">
            <mxPoint x="1200" y="730" as="sourcePoint" />
            <mxPoint x="1200" y="690" as="targetPoint" />
          </mxGeometry>
        </mxCell>
        <mxCell id="M9zflv45pWriz8vddk0P-105" value="" style="endArrow=none;html=1;fillColor=#00FF80;strokeWidth=15;strokeColor=#7D5C00;" parent="1" edge="1">
          <mxGeometry width="50" height="50" relative="1" as="geometry">
            <mxPoint x="1200" y="830" as="sourcePoint" />
            <mxPoint x="1200" y="730" as="targetPoint" />
          </mxGeometry>
        </mxCell>
        <mxCell id="M9zflv45pWriz8vddk0P-106" value="&lt;font style=&quot;font-size: 30px&quot;&gt;1&lt;/font&gt;" style="text;html=1;strokeColor=none;fillColor=none;align=center;verticalAlign=middle;whiteSpace=wrap;rounded=0;shadow=0;" parent="1" vertex="1">
          <mxGeometry x="970" y="660" width="20" height="20" as="geometry" />
        </mxCell>
        <mxCell id="M9zflv45pWriz8vddk0P-107" value="&lt;font style=&quot;font-size: 30px&quot;&gt;2&lt;/font&gt;" style="text;html=1;strokeColor=none;fillColor=none;align=center;verticalAlign=middle;whiteSpace=wrap;rounded=0;shadow=0;" parent="1" vertex="1">
          <mxGeometry x="1000" y="660" width="20" height="20" as="geometry" />
        </mxCell>
        <mxCell id="M9zflv45pWriz8vddk0P-108" value="&lt;font style=&quot;font-size: 30px&quot;&gt;3&lt;/font&gt;" style="text;html=1;strokeColor=none;fillColor=none;align=center;verticalAlign=middle;whiteSpace=wrap;rounded=0;shadow=0;" parent="1" vertex="1">
          <mxGeometry x="1034" y="660" width="20" height="20" as="geometry" />
        </mxCell>
        <mxCell id="M9zflv45pWriz8vddk0P-109" value="&lt;font style=&quot;font-size: 30px&quot;&gt;4&lt;/font&gt;" style="text;html=1;strokeColor=none;fillColor=none;align=center;verticalAlign=middle;whiteSpace=wrap;rounded=0;shadow=0;" parent="1" vertex="1">
          <mxGeometry x="1064" y="660" width="20" height="20" as="geometry" />
        </mxCell>
        <mxCell id="M9zflv45pWriz8vddk0P-110" value="&lt;font style=&quot;font-size: 30px&quot;&gt;5&lt;/font&gt;" style="text;html=1;strokeColor=none;fillColor=none;align=center;verticalAlign=middle;whiteSpace=wrap;rounded=0;shadow=0;" parent="1" vertex="1">
          <mxGeometry x="1094" y="660" width="20" height="20" as="geometry" />
        </mxCell>
        <mxCell id="M9zflv45pWriz8vddk0P-111" value="&lt;font style=&quot;font-size: 30px&quot;&gt;6&lt;/font&gt;" style="text;html=1;strokeColor=none;fillColor=none;align=center;verticalAlign=middle;whiteSpace=wrap;rounded=0;shadow=0;" parent="1" vertex="1">
          <mxGeometry x="1130" y="660" width="20" height="20" as="geometry" />
        </mxCell>
        <mxCell id="M9zflv45pWriz8vddk0P-112" value="&lt;font style=&quot;font-size: 30px&quot;&gt;7&lt;/font&gt;" style="text;html=1;strokeColor=none;fillColor=none;align=center;verticalAlign=middle;whiteSpace=wrap;rounded=0;shadow=0;" parent="1" vertex="1">
          <mxGeometry x="1160" y="660" width="20" height="20" as="geometry" />
        </mxCell>
        <mxCell id="M9zflv45pWriz8vddk0P-113" value="&lt;font style=&quot;font-size: 30px&quot;&gt;8&lt;/font&gt;" style="text;html=1;strokeColor=none;fillColor=none;align=center;verticalAlign=middle;whiteSpace=wrap;rounded=0;shadow=0;" parent="1" vertex="1">
          <mxGeometry x="1190" y="660" width="20" height="20" as="geometry" />
        </mxCell>
        <mxCell id="M9zflv45pWriz8vddk0P-114" value="" style="rounded=0;whiteSpace=wrap;html=1;shadow=0;fillColor=none;dashed=1;strokeColor=#67AB9F;" parent="1" vertex="1">
          <mxGeometry x="965" y="650" width="60" height="80" as="geometry" />
        </mxCell>
        <mxCell id="M9zflv45pWriz8vddk0P-116" value="" style="rounded=0;whiteSpace=wrap;html=1;shadow=0;fillColor=none;dashed=1;strokeColor=#5A6EAB;" parent="1" vertex="1">
          <mxGeometry x="1030" y="650" width="30" height="80" as="geometry" />
        </mxCell>
        <mxCell id="M9zflv45pWriz8vddk0P-117" value="" style="rounded=0;whiteSpace=wrap;html=1;shadow=0;fillColor=none;dashed=1;strokeColor=#5A6EAB;" parent="1" vertex="1">
          <mxGeometry x="1125" y="650" width="30" height="80" as="geometry" />
        </mxCell>
        <mxCell id="M9zflv45pWriz8vddk0P-119" value="" style="rounded=0;whiteSpace=wrap;html=1;shadow=0;dashed=1;strokeColor=#5A6EAB;fillColor=#CCCCCC;" parent="1" vertex="1">
          <mxGeometry x="972" y="830" width="238" height="50" as="geometry" />
        </mxCell>
        <mxCell id="M9zflv45pWriz8vddk0P-120" value="&lt;font style=&quot;font-size: 50px&quot;&gt;T568B&lt;/font&gt;" style="rounded=0;whiteSpace=wrap;html=1;shadow=0;dashed=1;strokeColor=#5A6EAB;fillColor=#CCCCCC;" parent="1" vertex="1">
          <mxGeometry x="952" y="880" width="278" height="140" as="geometry" />
        </mxCell>
        <mxCell id="M9zflv45pWriz8vddk0P-121" value="" style="rounded=0;whiteSpace=wrap;html=1;shadow=0;dashed=1;strokeColor=none;fontColor=#4A919B;fillColor=#4A919B;" parent="1" vertex="1">
          <mxGeometry x="420.5" y="1020" width="133" height="200" as="geometry" />
        </mxCell>
        <mxCell id="M9zflv45pWriz8vddk0P-122" value="" style="rounded=0;whiteSpace=wrap;html=1;shadow=0;dashed=1;strokeColor=#5A6EAB;fillColor=#4A919B;" parent="1" vertex="1">
          <mxGeometry x="1030" y="1020" width="130" height="200" as="geometry" />
        </mxCell>
        <mxCell id="M9zflv45pWriz8vddk0P-123" value="" style="rounded=1;whiteSpace=wrap;html=1;shadow=0;dashed=1;strokeColor=#4A919B;fillColor=#4A919B;" parent="1" vertex="1">
          <mxGeometry x="420.5" y="1211.41" width="739.5" height="90" as="geometry" />
        </mxCell>
        <mxCell id="M9zflv45pWriz8vddk0P-126" value="" style="endArrow=classic;startArrow=classic;html=1;strokeColor=#00B500;strokeWidth=2;fillColor=#5A6EAB;exitX=0.25;exitY=0;exitDx=0;exitDy=0;entryX=0.5;entryY=0;entryDx=0;entryDy=0;dashed=1;" parent="1" source="M9zflv45pWriz8vddk0P-63" target="M9zflv45pWriz8vddk0P-116" edge="1">
          <mxGeometry width="50" height="50" relative="1" as="geometry">
            <mxPoint x="380" y="580" as="sourcePoint" />
            <mxPoint x="1046" y="580" as="targetPoint" />
            <Array as="points">
              <mxPoint x="380" y="550" />
              <mxPoint x="1046" y="550" />
            </Array>
          </mxGeometry>
        </mxCell>
        <mxCell id="M9zflv45pWriz8vddk0P-127" value="" style="endArrow=classic;startArrow=classic;html=1;strokeWidth=2;fillColor=#5A6EAB;exitX=0.5;exitY=0;exitDx=0;exitDy=0;entryX=0.25;entryY=0;entryDx=0;entryDy=0;strokeColor=#FF8000;dashed=1;" parent="1" source="M9zflv45pWriz8vddk0P-65" target="M9zflv45pWriz8vddk0P-114" edge="1">
          <mxGeometry width="50" height="50" relative="1" as="geometry">
            <mxPoint x="390" y="660" as="sourcePoint" />
            <mxPoint x="1055" y="660" as="targetPoint" />
            <Array as="points">
              <mxPoint x="445" y="560" />
              <mxPoint x="980" y="560" />
            </Array>
          </mxGeometry>
        </mxCell>
        <mxCell id="M9zflv45pWriz8vddk0P-128" value="" style="endArrow=classic;startArrow=classic;html=1;strokeColor=#00B500;strokeWidth=2;fillColor=#5A6EAB;exitX=0.75;exitY=0;exitDx=0;exitDy=0;entryX=0.5;entryY=0;entryDx=0;entryDy=0;" parent="1" source="M9zflv45pWriz8vddk0P-63" target="M9zflv45pWriz8vddk0P-117" edge="1">
          <mxGeometry width="50" height="50" relative="1" as="geometry">
            <mxPoint x="407" y="600" as="sourcePoint" />
            <mxPoint x="1072" y="600" as="targetPoint" />
            <Array as="points">
              <mxPoint x="410" y="500" />
              <mxPoint x="1140" y="500" />
            </Array>
          </mxGeometry>
        </mxCell>
        <mxCell id="M9zflv45pWriz8vddk0P-129" value="" style="endArrow=classic;startArrow=classic;html=1;strokeWidth=2;fillColor=#5A6EAB;exitX=0.5;exitY=0;exitDx=0;exitDy=0;entryX=0.75;entryY=0;entryDx=0;entryDy=0;strokeColor=#FF8000;" parent="1" target="M9zflv45pWriz8vddk0P-114" edge="1">
          <mxGeometry width="50" height="50" relative="1" as="geometry">
            <mxPoint x="540.04" y="650" as="sourcePoint" />
            <mxPoint x="1075.04" y="650" as="targetPoint" />
            <Array as="points">
              <mxPoint x="540" y="580" />
              <mxPoint x="810" y="580" />
              <mxPoint x="1010" y="580" />
            </Array>
          </mxGeometry>
        </mxCell>
        <mxCell id="M9zflv45pWriz8vddk0P-130" value="&lt;font style=&quot;font-size: 50px&quot;&gt;交叉互联法&lt;/font&gt;" style="text;html=1;strokeColor=none;fillColor=none;align=center;verticalAlign=middle;whiteSpace=wrap;rounded=0;shadow=0;dashed=1;labelBackgroundColor=none;fontColor=#FFFFFF;" parent="1" vertex="1">
          <mxGeometry x="650" y="1251.41" width="270" height="10" as="geometry" />
        </mxCell>
      </root>
    </mxGraphModel>
  </diagram>
</mxfile>
